<svg width="30" height="30" viewBox="0 0 30 30" fill="none" xmlns="http://www.w3.org/2000/svg">
<path d="M4.63755 20.3625C4.51867 20.2487 4.37849 20.1595 4.22505 20.1C3.92072 19.975 3.57937 19.975 3.27505 20.1C3.12161 20.1595 2.98143 20.2487 2.86255 20.3625C2.74875 20.4814 2.65954 20.6216 2.60005 20.775C2.50432 21.0026 2.47817 21.2535 2.52489 21.496C2.5716 21.7385 2.6891 21.9617 2.86255 22.1375C2.98405 22.2479 3.12357 22.3367 3.27505 22.4C3.42467 22.4661 3.58646 22.5003 3.75005 22.5003C3.91364 22.5003 4.07542 22.4661 4.22505 22.4C4.37653 22.3367 4.51605 22.2479 4.63755 22.1375C4.81099 21.9617 4.92849 21.7385 4.97521 21.496C5.02192 21.2535 4.99577 21.0026 4.90005 20.775C4.84055 20.6216 4.75135 20.4814 4.63755 20.3625V20.3625ZM8.75005 10H26.25C26.5816 10 26.8995 9.8683 27.1339 9.63388C27.3684 9.39946 27.5 9.08152 27.5 8.75C27.5 8.41848 27.3684 8.10054 27.1339 7.86612C26.8995 7.6317 26.5816 7.5 26.25 7.5H8.75005C8.41853 7.5 8.10058 7.6317 7.86616 7.86612C7.63174 8.10054 7.50005 8.41848 7.50005 8.75C7.50005 9.08152 7.63174 9.39946 7.86616 9.63388C8.10058 9.8683 8.41853 10 8.75005 10ZM4.63755 14.1125C4.46177 13.9391 4.23855 13.8216 3.99606 13.7748C3.75358 13.7281 3.50268 13.7543 3.27505 13.85C3.12357 13.9133 2.98405 14.0021 2.86255 14.1125C2.74875 14.2314 2.65954 14.3716 2.60005 14.525C2.53391 14.6746 2.49976 14.8364 2.49976 15C2.49976 15.1636 2.53391 15.3254 2.60005 15.475C2.66335 15.6265 2.75213 15.766 2.86255 15.8875C2.98405 15.9979 3.12357 16.0867 3.27505 16.15C3.42467 16.2161 3.58646 16.2503 3.75005 16.2503C3.91364 16.2503 4.07542 16.2161 4.22505 16.15C4.37653 16.0867 4.51605 15.9979 4.63755 15.8875C4.74796 15.766 4.83674 15.6265 4.90005 15.475C4.96618 15.3254 5.00034 15.1636 5.00034 15C5.00034 14.8364 4.96618 14.6746 4.90005 14.525C4.84055 14.3716 4.75135 14.2314 4.63755 14.1125V14.1125ZM26.25 13.75H8.75005C8.41853 13.75 8.10058 13.8817 7.86616 14.1161C7.63174 14.3505 7.50005 14.6685 7.50005 15C7.50005 15.3315 7.63174 15.6495 7.86616 15.8839C8.10058 16.1183 8.41853 16.25 8.75005 16.25H26.25C26.5816 16.25 26.8995 16.1183 27.1339 15.8839C27.3684 15.6495 27.5 15.3315 27.5 15C27.5 14.6685 27.3684 14.3505 27.1339 14.1161C26.8995 13.8817 26.5816 13.75 26.25 13.75ZM4.63755 7.8625C4.51867 7.7487 4.37849 7.65949 4.22505 7.6C3.99741 7.50428 3.74652 7.47812 3.50403 7.52484C3.26154 7.57156 3.03833 7.68905 2.86255 7.8625C2.75213 7.984 2.66335 8.12352 2.60005 8.275C2.53391 8.42463 2.49976 8.58641 2.49976 8.75C2.49976 8.91359 2.53391 9.07537 2.60005 9.225C2.66335 9.37648 2.75213 9.516 2.86255 9.6375C2.98405 9.74791 3.12357 9.8367 3.27505 9.9C3.50268 9.99572 3.75358 10.0219 3.99606 9.97516C4.23855 9.92844 4.46177 9.81095 4.63755 9.6375C4.74796 9.516 4.83674 9.37648 4.90005 9.225C4.96618 9.07537 5.00034 8.91359 5.00034 8.75C5.00034 8.58641 4.96618 8.42463 4.90005 8.275C4.83674 8.12352 4.74796 7.984 4.63755 7.8625V7.8625ZM26.25 20H8.75005C8.41853 20 8.10058 20.1317 7.86616 20.3661C7.63174 20.6005 7.50005 20.9185 7.50005 21.25C7.50005 21.5815 7.63174 21.8995 7.86616 22.1339C8.10058 22.3683 8.41853 22.5 8.75005 22.5H26.25C26.5816 22.5 26.8995 22.3683 27.1339 22.1339C27.3684 21.8995 27.5 21.5815 27.5 21.25C27.5 20.9185 27.3684 20.6005 27.1339 20.3661C26.8995 20.1317 26.5816 20 26.25 20Z" fill="#080852"/>
</svg>
