<svg width="9" height="8" viewBox="0 0 9 8" fill="none" xmlns="http://www.w3.org/2000/svg">
<g clip-path="url(#clip0_58_256)">
<path d="M7.93872 0.686672C7.66992 0.645516 7.39773 0.624332 7.12497 0.623338C6.19436 0.62266 5.28315 0.859863 4.49997 1.30667C3.71478 0.865729 2.80371 0.634349 1.87497 0.640005C1.60221 0.640998 1.33002 0.662183 1.06122 0.703338C0.973173 0.716831 0.893438 0.757824 0.836376 0.818936C0.779313 0.880047 0.748672 0.957261 0.749971 1.03667V5.03667C0.749168 5.08565 0.760518 5.13418 0.783214 5.17882C0.805911 5.22345 0.839395 5.26309 0.881286 5.29492C0.923176 5.32675 0.972442 5.34997 1.02558 5.36295C1.07872 5.37593 1.13442 5.37834 1.18872 5.37C1.7261 5.2873 2.27667 5.30102 2.808 5.41036C3.33932 5.51971 3.84065 5.72246 4.28247 6.00667L4.32747 6.03H4.36872C4.41031 6.04541 4.45492 6.05334 4.49997 6.05334C4.54502 6.05334 4.58963 6.04541 4.63122 6.03H4.67247L4.71747 6.00667C5.1562 5.7161 5.6561 5.50678 6.18753 5.39112C6.71895 5.27546 7.27109 5.25581 7.81122 5.33334C7.86552 5.34167 7.92123 5.33926 7.97436 5.32628C8.0275 5.31331 8.07676 5.29008 8.11865 5.25825C8.16054 5.22643 8.19403 5.18679 8.21673 5.14215C8.23942 5.09752 8.25077 5.04898 8.24997 5V1C8.24607 0.924056 8.21307 0.851575 8.15646 0.794584C8.09985 0.737593 8.02302 0.699517 7.93872 0.686672ZM4.12497 5.11667C3.43118 4.79223 2.65891 4.62291 1.87497 4.62334C1.75122 4.62334 1.62747 4.62334 1.49997 4.62334V1.29C1.62487 1.28361 1.75007 1.28361 1.87497 1.29C2.67499 1.28922 3.45755 1.4979 4.12497 1.89V5.11667ZM7.49997 4.63667C7.37247 4.63667 7.24872 4.63667 7.12497 4.63667C6.34103 4.63624 5.56876 4.80557 4.87497 5.13V1.89C5.54239 1.4979 6.32495 1.28922 7.12497 1.29C7.24987 1.28361 7.37507 1.28361 7.49997 1.29V4.63667ZM7.93872 6.02C7.66992 5.97885 7.39773 5.95766 7.12497 5.95667C6.19436 5.95599 5.28315 6.1932 4.49997 6.64C3.71679 6.1932 2.80558 5.95599 1.87497 5.95667C1.60221 5.95766 1.33002 5.97885 1.06122 6.02C1.01241 6.02689 0.965604 6.04229 0.923507 6.06531C0.881409 6.08833 0.844846 6.11852 0.815921 6.15414C0.786995 6.18976 0.766278 6.23012 0.75496 6.27289C0.743641 6.31565 0.741946 6.35999 0.749971 6.40334C0.769028 6.4899 0.825905 6.56622 0.908142 6.61558C0.99038 6.66493 1.09127 6.68331 1.18872 6.66667C1.7261 6.58397 2.27667 6.59769 2.808 6.70703C3.33932 6.81637 3.84065 7.01912 4.28247 7.30334C4.34598 7.34353 4.42201 7.36513 4.49997 7.36513C4.57793 7.36513 4.65396 7.34353 4.71747 7.30334C5.15929 7.01912 5.66062 6.81637 6.19195 6.70703C6.72327 6.59769 7.27384 6.58397 7.81122 6.66667C7.90867 6.68331 8.00956 6.66493 8.0918 6.61558C8.17404 6.56622 8.23091 6.4899 8.24997 6.40334C8.25799 6.35999 8.2563 6.31565 8.24498 6.27289C8.23366 6.23012 8.21294 6.18976 8.18402 6.15414C8.15509 6.11852 8.11853 6.08833 8.07643 6.06531C8.03434 6.04229 7.98753 6.02689 7.93872 6.02Z" fill="black"/>
</g>
<defs>
<clipPath id="clip0_58_256">
<rect width="9" height="8" fill="white"/>
</clipPath>
</defs>
</svg>
