<svg width="20" height="20" viewBox="0 0 20 20" fill="none" xmlns="http://www.w3.org/2000/svg">
<path d="M18.2 4.54708C18.0893 3.85064 17.7568 3.20648 17.25 2.70699C16.741 2.20966 16.0847 1.88329 15.375 1.77467C13.9066 1.55707 12.409 1.62375 10.9667 1.97095C10.9097 1.9824 10.854 1.99882 10.8 2.02002C8.68949 2.54206 6.76276 3.61609 5.22501 5.12773C3.67843 6.64772 2.57863 8.54926 2.04168 10.6317C2.04168 10.6807 2.04168 10.7298 2.00001 10.787C1.6462 12.2053 1.57826 13.6777 1.80001 15.1215C1.91897 15.8034 2.25095 16.4321 2.75001 16.9207C3.25898 17.418 3.91536 17.7444 4.62501 17.853C5.19811 17.9444 5.77772 17.9909 6.35835 17.992C7.27428 17.9868 8.1863 17.8743 9.07501 17.6567H9.19168C11.3049 17.1317 13.2347 16.0569 14.7776 14.5456C16.3205 13.0343 17.4193 11.1425 17.9583 9.06962C17.9583 9.02055 17.9583 8.97148 18 8.91423C18.3582 7.48552 18.4262 6.00157 18.2 4.54708ZM13.6417 3.27128C14.133 3.26874 14.6236 3.30704 15.1083 3.38578C15.1764 3.39996 15.2432 3.41909 15.3083 3.44303L14.1667 4.57162L12.8833 3.31217C13.1333 3.27128 13.3917 3.27128 13.6417 3.27128ZM6.39168 6.27268C7.64629 5.04809 9.19331 4.15121 10.8917 3.66384L12.9917 5.72474L11.2 7.48305L10.5917 6.88604C10.5142 6.80939 10.422 6.74855 10.3205 6.70703C10.2189 6.66551 10.11 6.64413 10 6.64413C9.89 6.64413 9.78108 6.66551 9.67953 6.70703C9.57798 6.74855 9.48582 6.80939 9.40835 6.88604C9.25314 7.03927 9.16602 7.24655 9.16602 7.46261C9.16602 7.67866 9.25314 7.88594 9.40835 8.03917L10.0167 8.63618L8.80001 9.81384L8.19168 9.21683C8.03554 9.06451 7.82434 8.97901 7.60418 8.97901C7.38403 8.97901 7.17282 9.06451 7.01668 9.21683C6.93857 9.29285 6.87658 9.38331 6.83427 9.48296C6.79196 9.58262 6.77018 9.68952 6.77018 9.79748C6.77018 9.90544 6.79196 10.0123 6.83427 10.112C6.87658 10.2117 6.93857 10.3021 7.01668 10.3781L7.62501 10.9751L5.83335 12.7498L3.74168 10.6971C4.23299 9.02753 5.14428 7.50607 6.39168 6.27268ZM3.50835 15.0233C3.48396 14.9594 3.46446 14.8938 3.45001 14.8271C3.32383 14.1062 3.28467 13.3733 3.33335 12.6435L4.65835 13.9029L3.50835 15.0233ZM4.89168 16.2419C4.82366 16.2277 4.75681 16.2086 4.69168 16.1846L5.83335 15.0561L7.11668 16.3564C6.37301 16.4042 5.62619 16.3657 4.89168 16.2419ZM13.6083 13.355C12.3516 14.5792 10.8012 15.4735 9.10001 15.9557L7.00835 13.9029L8.80001 12.1446L9.40835 12.7416C9.4855 12.8179 9.5772 12.8785 9.67821 12.9199C9.77922 12.9614 9.88757 12.983 9.99707 12.9833C10.1066 12.9837 10.2151 12.9629 10.3164 12.9222C10.4177 12.8814 10.5098 12.8214 10.5875 12.7457C10.6652 12.67 10.727 12.58 10.7692 12.4809C10.8115 12.3817 10.8334 12.2754 10.8338 12.168C10.8342 12.0605 10.813 11.954 10.7715 11.8546C10.7299 11.7552 10.6688 11.6648 10.5917 11.5885L10 10.9915L11.2 9.81384L11.8083 10.4108C11.8862 10.4866 11.9786 10.5466 12.0801 10.5873C12.1816 10.628 12.2903 10.6486 12.4 10.648C12.5648 10.6473 12.7257 10.5987 12.8624 10.5083C12.999 10.4179 13.1053 10.2897 13.1677 10.14C13.2302 9.99034 13.246 9.82584 13.2132 9.66734C13.1803 9.50883 13.1004 9.36344 12.9833 9.24954L12.375 8.65253L14.1667 6.87786L16.2583 8.93059C15.767 10.6001 14.8558 12.1216 13.6083 13.355ZM16.6667 6.98418L15.3417 5.72474L16.4917 4.60433C16.5161 4.66824 16.5356 4.73385 16.55 4.8006C16.6762 5.52144 16.7154 6.25435 16.6667 6.98418Z" fill="#080852"/>
</svg>
