<svg width="21" height="21" viewBox="0 0 21 21" fill="none" xmlns="http://www.w3.org/2000/svg">
<path d="M17.5 3.0625H3.5C2.80381 3.0625 2.13613 3.33906 1.64384 3.83134C1.15156 4.32363 0.875 4.99131 0.875 5.6875V17.0625C0.875 17.2946 0.967187 17.5171 1.13128 17.6812C1.29538 17.8453 1.51794 17.9375 1.75 17.9375H5.25C5.39412 17.9368 5.53582 17.9004 5.66252 17.8317C5.78922 17.763 5.89699 17.6641 5.97625 17.5437L7.4725 15.3125H13.5275L15.0238 17.5437C15.103 17.6641 15.2108 17.763 15.3375 17.8317C15.4642 17.9004 15.6059 17.9368 15.75 17.9375H19.25C19.4821 17.9375 19.7046 17.8453 19.8687 17.6812C20.0328 17.5171 20.125 17.2946 20.125 17.0625V5.6875C20.125 4.99131 19.8484 4.32363 19.3562 3.83134C18.8639 3.33906 18.1962 3.0625 17.5 3.0625ZM18.375 16.1875H16.2225L14.7262 14C14.6522 13.8715 14.5467 13.7639 14.4197 13.6874C14.2926 13.6109 14.1482 13.5679 14 13.5625H7C6.85588 13.5632 6.71418 13.5996 6.58748 13.6683C6.46078 13.737 6.35301 13.8359 6.27375 13.9563L4.7775 16.1875H2.625V11.8125H18.375V16.1875ZM6.125 10.0625V9.1875C6.125 8.95544 6.21719 8.73288 6.38128 8.56878C6.54538 8.40469 6.76794 8.3125 7 8.3125H8.75C8.98206 8.3125 9.20462 8.40469 9.36872 8.56878C9.53281 8.73288 9.625 8.95544 9.625 9.1875V10.0625H6.125ZM11.375 10.0625V9.1875C11.375 8.95544 11.4672 8.73288 11.6313 8.56878C11.7954 8.40469 12.0179 8.3125 12.25 8.3125H14C14.2321 8.3125 14.4546 8.40469 14.6187 8.56878C14.7828 8.73288 14.875 8.95544 14.875 9.1875V10.0625H11.375ZM18.375 10.0625H16.625V9.1875C16.625 8.49131 16.3484 7.82363 15.8562 7.33134C15.3639 6.83906 14.6962 6.5625 14 6.5625H12.25C11.6025 6.56636 10.9792 6.80943 10.5 7.245C10.0208 6.80943 9.39755 6.56636 8.75 6.5625H7C6.30381 6.5625 5.63613 6.83906 5.14384 7.33134C4.65156 7.82363 4.375 8.49131 4.375 9.1875V10.0625H2.625V5.6875C2.625 5.45544 2.71719 5.23288 2.88128 5.06878C3.04538 4.90469 3.26794 4.8125 3.5 4.8125H17.5C17.7321 4.8125 17.9546 4.90469 18.1187 5.06878C18.2828 5.23288 18.375 5.45544 18.375 5.6875V10.0625Z" fill="#080852"/>
</svg>
