<svg width="16" height="16" viewBox="0 0 16 16" fill="none" xmlns="http://www.w3.org/2000/svg">
<path d="M12.6666 1.33334C12.4898 1.33334 12.3202 1.40357 12.1952 1.5286C12.0702 1.65362 12 1.82319 12 2V5.64L11.3333 6.08667V2C11.3333 1.82319 11.2631 1.65362 11.138 1.5286C11.013 1.40357 10.8434 1.33334 10.6666 1.33334C10.4898 1.33334 10.3202 1.40357 10.1952 1.5286C10.0702 1.65362 9.99996 1.82319 9.99996 2V6.08667L9.33329 5.64V2C9.33329 1.82319 9.26305 1.65362 9.13803 1.5286C9.01301 1.40357 8.84344 1.33334 8.66663 1.33334C8.48981 1.33334 8.32025 1.40357 8.19522 1.5286C8.0702 1.65362 7.99996 1.82319 7.99996 2V6C8.00053 6.10981 8.02821 6.21777 8.08054 6.3143C8.13288 6.41083 8.20825 6.49294 8.29996 6.55334L9.99996 7.69334V14C9.99996 14.1768 10.0702 14.3464 10.1952 14.4714C10.3202 14.5964 10.4898 14.6667 10.6666 14.6667C10.8434 14.6667 11.013 14.5964 11.138 14.4714C11.2631 14.3464 11.3333 14.1768 11.3333 14V7.69334L13.0333 6.55334C13.125 6.49294 13.2004 6.41083 13.2527 6.3143C13.305 6.21777 13.3327 6.10981 13.3333 6V2C13.3333 1.82319 13.2631 1.65362 13.138 1.5286C13.013 1.40357 12.8434 1.33334 12.6666 1.33334ZM5.99996 1.33334C5.1159 1.33334 4.26806 1.68453 3.64294 2.30965C3.01782 2.93477 2.66663 3.78261 2.66663 4.66667V8.66667C2.66663 8.84348 2.73686 9.01305 2.86189 9.13807C2.98691 9.2631 3.15648 9.33334 3.33329 9.33334H5.33329V14C5.33329 14.1768 5.40353 14.3464 5.52855 14.4714C5.65358 14.5964 5.82315 14.6667 5.99996 14.6667C6.17677 14.6667 6.34634 14.5964 6.47136 14.4714C6.59639 14.3464 6.66663 14.1768 6.66663 14V2C6.66663 1.82319 6.59639 1.65362 6.47136 1.5286C6.34634 1.40357 6.17677 1.33334 5.99996 1.33334ZM5.33329 8H3.99996V4.66667C3.99974 4.2529 4.12786 3.84925 4.36666 3.51135C4.60546 3.17345 4.94319 2.91793 5.33329 2.78V8Z" fill="#080852"/>
</svg>
