<svg width="14" height="14" viewBox="0 0 14 14" fill="none" xmlns="http://www.w3.org/2000/svg">
<path d="M6.99996 8.16667C7.11533 8.16667 7.22811 8.13246 7.32404 8.06836C7.41997 8.00426 7.49474 7.91316 7.53889 7.80657C7.58304 7.69998 7.59459 7.58269 7.57208 7.46954C7.54958 7.35638 7.49402 7.25244 7.41244 7.17086C7.33086 7.08928 7.22692 7.03372 7.11376 7.01121C7.00061 6.98871 6.88332 7.00026 6.77673 7.04441C6.67014 7.08856 6.57903 7.16333 6.51494 7.25926C6.45084 7.35518 6.41663 7.46797 6.41663 7.58334C6.41663 7.73805 6.47808 7.88642 6.58748 7.99582C6.69688 8.10521 6.84525 8.16667 6.99996 8.16667ZM9.91663 8.16667C10.032 8.16667 10.1448 8.13246 10.2407 8.06836C10.3366 8.00426 10.4114 7.91316 10.4556 7.80657C10.4997 7.69998 10.5113 7.58269 10.4888 7.46954C10.4662 7.35638 10.4107 7.25244 10.3291 7.17086C10.2475 7.08928 10.1436 7.03372 10.0304 7.01121C9.91727 6.98871 9.79998 7.00026 9.69339 7.04441C9.5868 7.08856 9.4957 7.16333 9.4316 7.25926C9.3675 7.35518 9.33329 7.46797 9.33329 7.58334C9.33329 7.73805 9.39475 7.88642 9.50415 7.99582C9.61354 8.10521 9.76192 8.16667 9.91663 8.16667ZM6.99996 10.5C7.11533 10.5 7.22811 10.4658 7.32404 10.4017C7.41997 10.3376 7.49474 10.2465 7.53889 10.1399C7.58304 10.0333 7.59459 9.91602 7.57208 9.80287C7.54958 9.68971 7.49402 9.58577 7.41244 9.50419C7.33086 9.42261 7.22692 9.36705 7.11376 9.34455C7.00061 9.32204 6.88332 9.33359 6.77673 9.37774C6.67014 9.42189 6.57903 9.49666 6.51494 9.59259C6.45084 9.68852 6.41663 9.8013 6.41663 9.91667C6.41663 10.0714 6.47808 10.2198 6.58748 10.3292C6.69688 10.4385 6.84525 10.5 6.99996 10.5ZM9.91663 10.5C10.032 10.5 10.1448 10.4658 10.2407 10.4017C10.3366 10.3376 10.4114 10.2465 10.4556 10.1399C10.4997 10.0333 10.5113 9.91602 10.4888 9.80287C10.4662 9.68971 10.4107 9.58577 10.3291 9.50419C10.2475 9.42261 10.1436 9.36705 10.0304 9.34455C9.91727 9.32204 9.79998 9.33359 9.69339 9.37774C9.5868 9.42189 9.4957 9.49666 9.4316 9.59259C9.3675 9.68852 9.33329 9.8013 9.33329 9.91667C9.33329 10.0714 9.39475 10.2198 9.50415 10.3292C9.61354 10.4385 9.76192 10.5 9.91663 10.5ZM4.08329 8.16667C4.19866 8.16667 4.31145 8.13246 4.40738 8.06836C4.5033 8.00426 4.57807 7.91316 4.62222 7.80657C4.66637 7.69998 4.67793 7.58269 4.65542 7.46954C4.63291 7.35638 4.57735 7.25244 4.49577 7.17086C4.41419 7.08928 4.31025 7.03372 4.1971 7.01121C4.08394 6.98871 3.96665 7.00026 3.86006 7.04441C3.75347 7.08856 3.66237 7.16333 3.59827 7.25926C3.53417 7.35518 3.49996 7.46797 3.49996 7.58334C3.49996 7.73805 3.56142 7.88642 3.67081 7.99582C3.78021 8.10521 3.92858 8.16667 4.08329 8.16667ZM11.0833 2.33334H10.5V1.75001C10.5 1.5953 10.4385 1.44692 10.3291 1.33753C10.2197 1.22813 10.0713 1.16667 9.91663 1.16667C9.76192 1.16667 9.61354 1.22813 9.50415 1.33753C9.39475 1.44692 9.33329 1.5953 9.33329 1.75001V2.33334H4.66663V1.75001C4.66663 1.5953 4.60517 1.44692 4.49577 1.33753C4.38638 1.22813 4.238 1.16667 4.08329 1.16667C3.92858 1.16667 3.78021 1.22813 3.67081 1.33753C3.56142 1.44692 3.49996 1.5953 3.49996 1.75001V2.33334H2.91663C2.4525 2.33334 2.00738 2.51771 1.67919 2.8459C1.351 3.17409 1.16663 3.61921 1.16663 4.08334V11.0833C1.16663 11.5475 1.351 11.9926 1.67919 12.3208C2.00738 12.649 2.4525 12.8333 2.91663 12.8333H11.0833C11.5474 12.8333 11.9925 12.649 12.3207 12.3208C12.6489 11.9926 12.8333 11.5475 12.8333 11.0833V4.08334C12.8333 3.61921 12.6489 3.17409 12.3207 2.8459C11.9925 2.51771 11.5474 2.33334 11.0833 2.33334ZM11.6666 11.0833C11.6666 11.238 11.6052 11.3864 11.4958 11.4958C11.3864 11.6052 11.238 11.6667 11.0833 11.6667H2.91663C2.76192 11.6667 2.61354 11.6052 2.50415 11.4958C2.39475 11.3864 2.33329 11.238 2.33329 11.0833V5.83334H11.6666V11.0833ZM11.6666 4.66667H2.33329V4.08334C2.33329 3.92863 2.39475 3.78026 2.50415 3.67086C2.61354 3.56146 2.76192 3.50001 2.91663 3.50001H11.0833C11.238 3.50001 11.3864 3.56146 11.4958 3.67086C11.6052 3.78026 11.6666 3.92863 11.6666 4.08334V4.66667ZM4.08329 10.5C4.19866 10.5 4.31145 10.4658 4.40738 10.4017C4.5033 10.3376 4.57807 10.2465 4.62222 10.1399C4.66637 10.0333 4.67793 9.91602 4.65542 9.80287C4.63291 9.68971 4.57735 9.58577 4.49577 9.50419C4.41419 9.42261 4.31025 9.36705 4.1971 9.34455C4.08394 9.32204 3.96665 9.33359 3.86006 9.37774C3.75347 9.42189 3.66237 9.49666 3.59827 9.59259C3.53417 9.68852 3.49996 9.8013 3.49996 9.91667C3.49996 10.0714 3.56142 10.2198 3.67081 10.3292C3.78021 10.4385 3.92858 10.5 4.08329 10.5Z" fill="#636363"/>
</svg>
