<svg width="32" height="32" viewBox="0 0 32 32" fill="none" xmlns="http://www.w3.org/2000/svg">
<path d="M29.0401 15.84L26.3734 12.5067C26.2492 12.3495 26.0912 12.2224 25.9112 12.1347C25.7311 12.047 25.5337 12.0009 25.3334 12H17.3334V4.00001C17.3334 3.64638 17.1929 3.30724 16.9429 3.0572C16.6928 2.80715 16.3537 2.66667 16 2.66667C15.6464 2.66667 15.3073 2.80715 15.0572 3.0572C14.8072 3.30724 14.6667 3.64638 14.6667 4.00001V5.33334H6.66672C6.46644 5.33426 6.26895 5.38029 6.0889 5.468C5.90886 5.55572 5.75088 5.68287 5.62672 5.84001L2.96005 9.17334C2.77404 9.40873 2.67285 9.69999 2.67285 10C2.67285 10.3 2.77404 10.5913 2.96005 10.8267L5.62672 14.16C5.75088 14.3171 5.90886 14.4443 6.0889 14.532C6.26895 14.6197 6.46644 14.6657 6.66672 14.6667H14.6667V26.6667H12C11.6464 26.6667 11.3073 26.8071 11.0572 27.0572C10.8072 27.3072 10.6667 27.6464 10.6667 28C10.6667 28.3536 10.8072 28.6928 11.0572 28.9428C11.3073 29.1929 11.6464 29.3333 12 29.3333H20.0001C20.3537 29.3333 20.6928 29.1929 20.9429 28.9428C21.1929 28.6928 21.3334 28.3536 21.3334 28C21.3334 27.6464 21.1929 27.3072 20.9429 27.0572C20.6928 26.8071 20.3537 26.6667 20.0001 26.6667H17.3334V21.3333H25.3334C25.5337 21.3324 25.7311 21.2864 25.9112 21.1987C26.0912 21.111 26.2492 20.9838 26.3734 20.8267L29.0401 17.4933C29.2261 17.2579 29.3272 16.9667 29.3272 16.6667C29.3272 16.3667 29.2261 16.0754 29.0401 15.84V15.84ZM14.6667 12H7.30672L5.70672 10L7.30672 8.00001H14.6667V12ZM24.6934 18.6667H17.3334V14.6667H24.6934L26.2934 16.6667L24.6934 18.6667Z" fill="#080852"/>
</svg>
