<svg width="30" height="30" viewBox="0 0 30 30" fill="none" xmlns="http://www.w3.org/2000/svg">
<path d="M20.4625 15.9875C20.3098 15.9268 20.1467 15.8967 19.9824 15.899C19.8181 15.9013 19.6559 15.9359 19.505 16.0009C19.3541 16.0659 19.2175 16.16 19.103 16.2778C18.9884 16.3956 18.8982 16.5348 18.8375 16.6875C18.7768 16.8402 18.7467 17.0033 18.749 17.1676C18.7513 17.3319 18.786 17.4941 18.851 17.645C18.916 17.7959 19.01 17.9325 19.1278 18.047C19.2456 18.1615 19.3848 18.2518 19.5375 18.3125C21.3625 19.0375 22.5 20.1625 22.5 21.25C22.5 23.025 19.425 25 15 25C10.575 25 7.5 23.025 7.5 21.25C7.5 20.1625 8.6375 19.0375 10.4625 18.3125C10.7708 18.1898 11.0178 17.9497 11.149 17.645C11.2803 17.3402 11.2852 16.9958 11.1625 16.6875C11.0398 16.3792 10.7997 16.1322 10.495 16.0009C10.1902 15.8697 9.84581 15.8648 9.5375 15.9875C6.7 17.1125 5 19.075 5 21.25C5 24.75 9.3875 27.5 15 27.5C20.6125 27.5 25 24.75 25 21.25C25 19.075 23.3 17.1125 20.4625 15.9875ZM13.75 12.325V21.25C13.75 21.5815 13.8817 21.8995 14.1161 22.1339C14.3505 22.3683 14.6685 22.5 15 22.5C15.3315 22.5 15.6495 22.3683 15.8839 22.1339C16.1183 21.8995 16.25 21.5815 16.25 21.25V12.325C17.4283 12.0208 18.4552 11.2972 19.1383 10.29C19.8213 9.28276 20.1135 8.06101 19.9601 6.85374C19.8068 5.64648 19.2184 4.53658 18.3053 3.73209C17.3922 2.92761 16.217 2.48376 15 2.48376C13.783 2.48376 12.6078 2.92761 11.6947 3.73209C10.7816 4.53658 10.1932 5.64648 10.0399 6.85374C9.88651 8.06101 10.1787 9.28276 10.8617 10.29C11.5448 11.2972 12.5717 12.0208 13.75 12.325V12.325ZM15 4.99999C15.4945 4.99999 15.9778 5.14662 16.3889 5.42132C16.8 5.69602 17.1205 6.08647 17.3097 6.54329C17.4989 7.0001 17.5484 7.50277 17.452 7.98772C17.3555 8.47267 17.1174 8.91813 16.7678 9.26776C16.4181 9.61739 15.9727 9.85549 15.4877 9.95196C15.0028 10.0484 14.5001 9.99891 14.0433 9.80969C13.5865 9.62047 13.196 9.30004 12.9213 8.88892C12.6466 8.4778 12.5 7.99445 12.5 7.49999C12.5 6.83695 12.7634 6.20107 13.2322 5.73223C13.7011 5.26339 14.337 4.99999 15 4.99999Z" fill="#080852"/>
</svg>
