<svg width="12" height="12" viewBox="0 0 12 12" fill="none" xmlns="http://www.w3.org/2000/svg">
<path d="M8.99996 2.24C8.20432 1.44435 7.12518 0.99736 5.99996 0.99736C4.87475 0.99736 3.79561 1.44435 2.99996 2.24C2.20432 3.03565 1.75732 4.11478 1.75732 5.24C1.75732 6.36522 2.20432 7.44435 2.99996 8.24L5.63496 10.88C5.68145 10.9269 5.73675 10.9641 5.79768 10.9894C5.85861 11.0148 5.92396 11.0279 5.98996 11.0279C6.05597 11.0279 6.12132 11.0148 6.18225 10.9894C6.24318 10.9641 6.29848 10.9269 6.34496 10.88L8.99996 8.215C9.79229 7.42266 10.2374 6.34803 10.2374 5.2275C10.2374 4.10697 9.79229 3.03234 8.99996 2.24ZM8.28496 7.5L5.99996 9.795L3.71496 7.5C3.26354 7.04816 2.9562 6.47262 2.83181 5.84615C2.70742 5.21967 2.77156 4.57037 3.01612 3.98034C3.26067 3.39031 3.67467 2.88603 4.20578 2.53124C4.73689 2.17645 5.36126 1.98709 5.99996 1.98709C6.63867 1.98709 7.26304 2.17645 7.79415 2.53124C8.32526 2.88603 8.73925 3.39031 8.98381 3.98034C9.22837 4.57037 9.29251 5.21967 9.16812 5.84615C9.04373 6.47262 8.73639 7.04816 8.28496 7.5ZM4.49996 3.705C4.09632 4.10989 3.86966 4.65828 3.86966 5.23C3.86966 5.80172 4.09632 6.35012 4.49996 6.755C4.79985 7.0554 5.18176 7.26054 5.59779 7.3447C6.01382 7.42886 6.44544 7.38829 6.8385 7.22808C7.23156 7.06786 7.56856 6.79514 7.80721 6.44413C8.04585 6.09311 8.17553 5.67944 8.17997 5.255C8.18222 4.9716 8.12763 4.69063 8.01942 4.42869C7.91121 4.16676 7.75158 3.92918 7.54996 3.73C7.3518 3.52729 7.1155 3.36577 6.85468 3.25473C6.59385 3.1437 6.31364 3.08534 6.03017 3.08302C5.7467 3.08069 5.46556 3.13445 5.20295 3.24119C4.94034 3.34794 4.70143 3.50557 4.49996 3.705ZM6.84496 6.045C6.65549 6.23737 6.40507 6.35795 6.13653 6.38613C5.86799 6.4143 5.598 6.34832 5.37272 6.19946C5.14744 6.05061 4.98086 5.82812 4.90147 5.57004C4.82207 5.31196 4.83479 5.03432 4.93744 4.78458C5.0401 4.53484 5.22631 4.32851 5.46426 4.20087C5.7022 4.07323 5.97709 4.0322 6.24193 4.08481C6.50677 4.13741 6.74512 4.28038 6.91622 4.48927C7.08732 4.69815 7.18055 4.95999 7.17996 5.23C7.17269 5.53864 7.04321 5.83176 6.81996 6.045H6.84496Z" fill="#080852"/>
</svg>
