<svg width="15" height="17" viewBox="0 0 15 17" fill="none" xmlns="http://www.w3.org/2000/svg">
<path d="M12.25 2.54662C10.9902 1.28684 9.28158 0.579102 7.49998 0.579102C5.71839 0.579102 4.00976 1.28684 2.74998 2.54662C1.49021 3.80639 0.782471 5.51502 0.782471 7.29662C0.782471 9.07821 1.49021 10.7868 2.74998 12.0466L6.92207 16.2266C6.99566 16.3008 7.08322 16.3597 7.17969 16.3999C7.27617 16.4401 7.37964 16.4608 7.48415 16.4608C7.58866 16.4608 7.69214 16.4401 7.78861 16.3999C7.88508 16.3597 7.97264 16.3008 8.04623 16.2266L12.25 12.007C13.5045 10.7525 14.2093 9.05099 14.2093 7.27682C14.2093 5.50266 13.5045 3.80115 12.25 2.54662V2.54662ZM11.1179 10.8749L7.49998 14.5087L3.88207 10.8749C3.16731 10.1595 2.6807 9.24827 2.48374 8.25635C2.28679 7.26442 2.38834 6.23637 2.77556 5.30215C3.16278 4.36794 3.81827 3.56949 4.65919 3.00774C5.50011 2.446 6.4887 2.14618 7.49998 2.14618C8.51127 2.14618 9.49986 2.446 10.3408 3.00774C11.1817 3.56949 11.8372 4.36794 12.2244 5.30215C12.6116 6.23637 12.7132 7.26442 12.5162 8.25635C12.3193 9.24827 11.8327 10.1595 11.1179 10.8749V10.8749ZM5.12498 4.8662C4.48588 5.50727 4.12701 6.37556 4.12701 7.28078C4.12701 8.186 4.48588 9.0543 5.12498 9.69537C5.5998 10.171 6.20449 10.4958 6.86321 10.6291C7.52192 10.7623 8.20532 10.6981 8.82767 10.4444C9.45001 10.1907 9.98359 9.75892 10.3614 9.20315C10.7393 8.64737 10.9446 7.99239 10.9517 7.32037C10.9552 6.87165 10.8688 6.42678 10.6975 6.01205C10.5261 5.59732 10.2734 5.22115 9.95415 4.90578C9.64039 4.58482 9.26626 4.32908 8.85328 4.15328C8.4403 3.97747 7.99663 3.88507 7.5478 3.88139C7.09897 3.87771 6.65385 3.96283 6.23805 4.13184C5.82224 4.30085 5.44396 4.55043 5.12498 4.8662V4.8662ZM8.8379 8.5712C8.53789 8.87579 8.1414 9.06671 7.71621 9.11132C7.29102 9.15593 6.86354 9.05146 6.50684 8.81577C6.15015 8.58008 5.88641 8.22781 5.7607 7.81918C5.63499 7.41056 5.65512 6.97095 5.81766 6.57553C5.9802 6.18011 6.27504 5.85342 6.65178 5.65132C7.02852 5.44923 7.46377 5.38427 7.8831 5.46756C8.30243 5.55085 8.67981 5.77722 8.95072 6.10795C9.22163 6.43869 9.36924 6.85326 9.36832 7.28078C9.3568 7.76946 9.15179 8.23358 8.79832 8.5712H8.8379Z" fill="#080852"/>
</svg>
