<svg width="16" height="16" viewBox="0 0 16 16" fill="none" xmlns="http://www.w3.org/2000/svg">
<path d="M8 0.5C6.51664 0.5 5.0666 0.939867 3.83323 1.76398C2.59986 2.58809 1.63856 3.75943 1.07091 5.12987C0.50325 6.50032 0.354725 8.00832 0.644114 9.46318C0.933503 10.918 1.64781 12.2544 2.6967 13.3033C3.7456 14.3522 5.08197 15.0665 6.53683 15.3559C7.99168 15.6453 9.49968 15.4968 10.8701 14.9291C12.2406 14.3614 13.4119 13.4001 14.236 12.1668C15.0601 10.9334 15.5 9.48336 15.5 8C15.5 7.01509 15.306 6.03982 14.9291 5.12987C14.5522 4.21993 13.9997 3.39314 13.3033 2.6967C12.6069 2.00026 11.7801 1.44781 10.8701 1.0709C9.96019 0.693993 8.98492 0.5 8 0.5V0.5ZM8.75 13.9475V13.25C8.75 13.0511 8.67099 12.8603 8.53033 12.7197C8.38968 12.579 8.19892 12.5 8 12.5C7.80109 12.5 7.61033 12.579 7.46967 12.7197C7.32902 12.8603 7.25 13.0511 7.25 13.25V13.9475C5.92999 13.7801 4.70306 13.1787 3.76219 12.2378C2.82132 11.2969 2.2199 10.07 2.0525 8.75H2.75C2.94892 8.75 3.13968 8.67098 3.28033 8.53033C3.42099 8.38968 3.5 8.19891 3.5 8C3.5 7.80109 3.42099 7.61032 3.28033 7.46967C3.13968 7.32902 2.94892 7.25 2.75 7.25H2.0525C2.2199 5.92998 2.82132 4.70306 3.76219 3.76219C4.70306 2.82132 5.92999 2.21989 7.25 2.0525V2.75C7.25 2.94891 7.32902 3.13968 7.46967 3.28033C7.61033 3.42098 7.80109 3.5 8 3.5C8.19892 3.5 8.38968 3.42098 8.53033 3.28033C8.67099 3.13968 8.75 2.94891 8.75 2.75V2.0525C10.07 2.21989 11.2969 2.82132 12.2378 3.76219C13.1787 4.70306 13.7801 5.92998 13.9475 7.25H13.25C13.0511 7.25 12.8603 7.32902 12.7197 7.46967C12.579 7.61032 12.5 7.80109 12.5 8C12.5 8.19891 12.579 8.38968 12.7197 8.53033C12.8603 8.67098 13.0511 8.75 13.25 8.75H13.9475C13.7801 10.07 13.1787 11.2969 12.2378 12.2378C11.2969 13.1787 10.07 13.7801 8.75 13.9475ZM10.355 4.6625L6.605 6.2525C6.43019 6.32825 6.29075 6.46768 6.215 6.6425L4.625 10.3925C4.56594 10.53 4.54937 10.6821 4.57744 10.8291C4.60551 10.9761 4.67692 11.1114 4.7825 11.2175C4.92098 11.3588 5.10968 11.4397 5.3075 11.4425C5.41128 11.4426 5.51377 11.4195 5.6075 11.375L9.3575 9.785C9.53232 9.70925 9.67176 9.56982 9.7475 9.395L11.3375 5.645C11.3955 5.50757 11.4111 5.35598 11.3825 5.2096C11.3539 5.06322 11.2822 4.9287 11.1768 4.82323C11.0713 4.71776 10.9368 4.64614 10.7904 4.61751C10.644 4.58888 10.4924 4.60454 10.355 4.6625V4.6625ZM8.4875 8.4875L6.7775 9.2375L7.5275 7.5275L9.2375 6.7775L8.4875 8.4875Z" fill="white"/>
</svg>
