<svg width="24" height="22" viewBox="0 0 24 22" fill="none" xmlns="http://www.w3.org/2000/svg">
<path d="M19 9.09574C18.7348 9.09574 18.4804 9.19157 18.2929 9.36215C18.1054 9.53273 18 9.76408 18 10.0053V13.0797L16.52 11.7335C15.9974 11.2619 15.2911 10.9973 14.555 10.9973C13.8189 10.9973 13.1126 11.2619 12.59 11.7335L11.89 12.3793L9.41 10.1145C8.88742 9.64289 8.18113 9.37828 7.445 9.37828C6.70887 9.37828 6.00258 9.64289 5.48 10.1145L4 11.4697V6.36702C4 6.12578 4.10536 5.89443 4.29289 5.72385C4.48043 5.55327 4.73478 5.45744 5 5.45744H13C13.2652 5.45744 13.5196 5.36161 13.7071 5.19103C13.8946 5.02046 14 4.7891 14 4.54787C14 4.30663 13.8946 4.07528 13.7071 3.9047C13.5196 3.73412 13.2652 3.63829 13 3.63829H5C4.20435 3.63829 3.44129 3.92578 2.87868 4.43752C2.31607 4.94925 2 5.64331 2 6.36702V17.482C2.00264 18.1519 2.29637 18.7937 2.81715 19.2674C3.33794 19.7411 4.04351 20.0082 4.78 20.0106H17.22C17.491 20.0087 17.7603 19.9719 18.02 19.9015C18.5974 19.7542 19.1058 19.4386 19.4671 19.0032C19.8283 18.5678 20.0226 18.0366 20.02 17.4911V10.0053C20.02 9.88432 19.9935 9.76454 19.942 9.65298C19.8905 9.54143 19.8151 9.44033 19.7201 9.35563C19.6251 9.27093 19.5125 9.20431 19.3888 9.15969C19.2652 9.11506 19.133 9.09332 19 9.09574ZM5 18.1915C4.73478 18.1915 4.48043 18.0957 4.29289 17.9251C4.10536 17.7545 4 17.5231 4 17.2819V14.0347L6.89 11.4061C7.03615 11.2739 7.23389 11.1997 7.44 11.1997C7.64611 11.1997 7.84385 11.2739 7.99 11.4061L15.46 18.1915H5ZM18 17.2819C17.9936 17.458 17.931 17.6287 17.82 17.7731L13.3 13.6436L14.01 13.0069C14.0817 12.9404 14.1673 12.8875 14.2617 12.8514C14.3561 12.8153 14.4576 12.7967 14.56 12.7967C14.6624 12.7967 14.7639 12.8153 14.8583 12.8514C14.9527 12.8875 15.0383 12.9404 15.11 13.0069L18 15.6538V17.2819ZM21 3.63829H20V2.72872C20 2.48749 19.8946 2.25613 19.7071 2.08555C19.5196 1.91498 19.2652 1.81915 19 1.81915C18.7348 1.81915 18.4804 1.91498 18.2929 2.08555C18.1054 2.25613 18 2.48749 18 2.72872V3.63829H17C16.7348 3.63829 16.4804 3.73412 16.2929 3.9047C16.1054 4.07528 16 4.30663 16 4.54787C16 4.7891 16.1054 5.02046 16.2929 5.19103C16.4804 5.36161 16.7348 5.45744 17 5.45744H18V6.36702C18 6.60825 18.1054 6.8396 18.2929 7.01018C18.4804 7.18076 18.7348 7.27659 19 7.27659C19.2652 7.27659 19.5196 7.18076 19.7071 7.01018C19.8946 6.8396 20 6.60825 20 6.36702V5.45744H21C21.2652 5.45744 21.5196 5.36161 21.7071 5.19103C21.8946 5.02046 22 4.7891 22 4.54787C22 4.30663 21.8946 4.07528 21.7071 3.9047C21.5196 3.73412 21.2652 3.63829 21 3.63829Z" fill="#080852"/>
</svg>
