<svg width="10" height="10" viewBox="0 0 10 10" fill="none" xmlns="http://www.w3.org/2000/svg">
<path d="M2.5 8.33334V2.50001C2.5 2.27084 2.58167 2.07473 2.745 1.91167C2.90833 1.74862 3.10444 1.66695 3.33333 1.66667H6.4375C6.57639 1.66667 6.70486 1.69792 6.82292 1.76042C6.94097 1.82292 7.03819 1.90973 7.11458 2.02084L8 3.27084C8.09722 3.41667 8.14583 3.57639 8.14583 3.75001C8.14583 3.92362 8.09722 4.08334 8 4.22917L7.11458 5.47917C7.03819 5.59028 6.94097 5.67709 6.82292 5.73959C6.70486 5.80209 6.57639 5.83334 6.4375 5.83334H3.33333V8.33334C3.33333 8.45139 3.29333 8.55042 3.21333 8.63042C3.13333 8.71042 3.03444 8.75028 2.91667 8.75001C2.79889 8.74973 2.7 8.70973 2.62 8.63001C2.54 8.55028 2.5 8.45139 2.5 8.33334ZM3.33333 5.00001H6.45833L7.29167 3.75001L6.45833 2.50001H3.33333V5.00001Z" fill="black"/>
</svg>
