<svg width="11" height="9" viewBox="0 0 11 9" fill="none" xmlns="http://www.w3.org/2000/svg">
<path d="M8.71427 4.5C8.98319 4.63949 9.21256 4.84459 9.38112 5.09631C9.54968 5.34803 9.65199 5.63822 9.67855 5.94C9.67855 7.18071 7.80784 8.19 5.49998 8.19C3.19213 8.19 1.32141 7.18714 1.32141 5.94643C1.34693 5.64352 1.44875 5.35201 1.61737 5.09909C1.78598 4.84616 2.01591 4.64006 2.2857 4.5" stroke="black" stroke-width="0.8" stroke-linecap="round" stroke-linejoin="round"/>
<path d="M3.62286 1.44643C2.33715 3.05357 4.90858 3.69643 3.62286 5.30357M5.50001 0.803574C4.21429 2.41072 6.78572 4.33929 5.50001 5.94643M7.37715 1.44643C6.09143 3.05357 8.66286 3.69643 7.37715 5.30357" stroke="black" stroke-width="0.8" stroke-linecap="round" stroke-linejoin="round"/>
</svg>
