<svg width="10" height="9" viewBox="0 0 10 9" fill="none" xmlns="http://www.w3.org/2000/svg">
<path d="M5.34492 8.61055C5.29902 8.67953 5.22759 8.72747 5.14636 8.7438C5.06512 8.76014 4.98072 8.74354 4.91172 8.69766C3.73444 7.91447 2.35149 7.49771 0.9375 7.5C0.85462 7.5 0.775134 7.46708 0.716529 7.40847C0.657924 7.34987 0.625 7.27038 0.625 7.1875C0.625 7.10462 0.657924 7.02513 0.716529 6.96653C0.775134 6.90792 0.85462 6.875 0.9375 6.875C2.47466 6.87263 3.97805 7.32582 5.25781 8.17734C5.3268 8.22325 5.37473 8.29467 5.39107 8.37591C5.4074 8.45715 5.3908 8.54154 5.34492 8.61055ZM0.9375 5.625C0.85462 5.625 0.775134 5.65792 0.716529 5.71653C0.657924 5.77513 0.625 5.85462 0.625 5.9375C0.625 6.02038 0.657924 6.09987 0.716529 6.15847C0.775134 6.21708 0.85462 6.25 0.9375 6.25C3.14643 6.2449 5.26826 7.11107 6.84258 8.66055C6.87162 8.69041 6.90635 8.71417 6.94471 8.73042C6.98307 8.74668 7.02429 8.75509 7.06595 8.75518C7.10761 8.75527 7.14887 8.74703 7.1873 8.73094C7.22573 8.71485 7.26055 8.69124 7.28972 8.66149C7.31889 8.63175 7.34182 8.59647 7.35716 8.55774C7.3725 8.519 7.37994 8.47759 7.37904 8.43594C7.37814 8.39429 7.36892 8.35324 7.35193 8.3152C7.33493 8.27717 7.3105 8.24291 7.28008 8.21445C5.5892 6.55001 3.31014 5.61954 0.9375 5.625ZM9.0625 6.25C8.42375 6.24958 7.78701 6.32152 7.16445 6.46445C7.37904 6.62721 7.58737 6.79857 7.78945 6.97852C8.2103 6.90958 8.63605 6.87496 9.0625 6.875C9.14538 6.875 9.22487 6.90792 9.28347 6.96653C9.34208 7.02513 9.375 7.10462 9.375 7.1875C9.375 7.27038 9.34208 7.34987 9.28347 7.40847C9.22487 7.46708 9.14538 7.5 9.0625 7.5C8.82812 7.5 8.59648 7.51133 8.36523 7.53359C8.5819 7.75938 8.78945 7.99557 8.98789 8.24219C9.01507 8.27402 9.03558 8.31099 9.0482 8.3509C9.06082 8.39081 9.0653 8.43285 9.06135 8.47453C9.05742 8.5162 9.04514 8.55666 9.02527 8.5935C9.00539 8.63034 8.97832 8.66281 8.94565 8.68898C8.91298 8.71516 8.87539 8.7345 8.8351 8.74587C8.79482 8.75724 8.75266 8.7604 8.71113 8.75516C8.6696 8.74992 8.62954 8.73639 8.59334 8.71537C8.55714 8.69436 8.52553 8.66628 8.50039 8.63281C7.59461 7.49697 6.44403 6.58034 5.13449 5.95131C3.82496 5.32228 2.39028 4.99708 0.9375 5C0.85462 5 0.775134 4.96708 0.716529 4.90847C0.657924 4.84987 0.625 4.77038 0.625 4.6875C0.625 4.60462 0.657924 4.52513 0.716529 4.46653C0.775134 4.40792 0.85462 4.375 0.9375 4.375C1.56638 4.37511 2.19394 4.43224 2.8125 4.5457V3.125C2.8125 3.07649 2.8238 3.02864 2.84549 2.98525C2.86719 2.94185 2.89869 2.90411 2.9375 2.875L5.4375 1C5.49159 0.959431 5.55738 0.9375 5.625 0.9375C5.69262 0.9375 5.75841 0.959431 5.8125 1L8.3125 2.875C8.35131 2.90411 8.38281 2.94185 8.40451 2.98525C8.4262 3.02864 8.4375 3.07649 8.4375 3.125V4.39414C8.64492 4.38203 8.85312 4.375 9.0625 4.375C9.14538 4.375 9.22487 4.40792 9.28347 4.46653C9.34208 4.52513 9.375 4.60462 9.375 4.6875C9.375 4.77038 9.34208 4.84987 9.28347 4.90847C9.22487 4.96708 9.14538 5 9.0625 5C7.94029 4.99786 6.82637 5.19206 5.77109 5.57383C6.01693 5.70404 6.25729 5.8444 6.49219 5.99492C7.32678 5.74897 8.19242 5.62439 9.0625 5.625C9.14538 5.625 9.22487 5.65792 9.28347 5.71653C9.34208 5.77513 9.375 5.85462 9.375 5.9375C9.375 6.02038 9.34208 6.09987 9.28347 6.15847C9.22487 6.21708 9.14538 6.25 9.0625 6.25ZM4.6875 3.4375H6.5625C6.64538 3.4375 6.72487 3.47042 6.78347 3.52903C6.84208 3.58763 6.875 3.66712 6.875 3.75V4.60703C7.18437 4.54036 7.49687 4.48828 7.8125 4.45078V3.28125L5.625 1.64062L3.4375 3.28125V4.68008C3.75495 4.7582 4.06745 4.85169 4.375 4.96055V3.75C4.375 3.66712 4.40792 3.58763 4.46653 3.52903C4.52513 3.47042 4.60462 3.4375 4.6875 3.4375ZM5.00273 5.20586C5.40853 5.03163 5.82515 4.8838 6.25 4.76328V4.0625H5V5.20469L5.00273 5.20586Z" fill="black"/>
</svg>
