<svg width="14" height="15" viewBox="0 0 14 15" fill="none" xmlns="http://www.w3.org/2000/svg">
<path d="M12.5125 4.80272L13.3088 4.09296C13.4735 3.94446 13.5661 3.74304 13.5661 3.53303C13.5661 3.32302 13.4735 3.12161 13.3088 2.97311C13.144 2.82461 12.9205 2.74118 12.6875 2.74118C12.4545 2.74118 12.231 2.82461 12.0663 2.97311L11.2788 3.69076C10.0525 2.83577 8.54601 2.37189 6.99565 2.37189C5.44529 2.37189 3.93879 2.83577 2.71252 3.69076L1.91627 2.96522C1.75035 2.81672 1.52576 2.73371 1.29193 2.73445C1.05809 2.73519 0.834164 2.81962 0.669398 2.96917C0.504632 3.11871 0.412529 3.32113 0.413349 3.53188C0.41417 3.74263 0.507847 3.94446 0.673773 4.09296L1.47877 4.8106C0.518911 5.91274 -0.00191027 7.27375 2.29504e-05 8.67486C-0.00283452 9.68069 0.261178 10.6726 0.770043 11.5677C1.27891 12.4629 2.01788 13.2355 2.92532 13.821C3.83275 14.4065 4.88236 14.7879 5.98661 14.9335C7.09085 15.0792 8.21772 14.9847 9.27323 14.6581C10.3287 14.3314 11.2823 13.7821 12.0544 13.0558C12.8265 12.3295 13.3947 11.4474 13.7117 10.483C14.0287 9.51859 14.0852 8.49985 13.8766 7.51175C13.668 6.52365 13.2003 5.59481 12.5125 4.80272V4.80272ZM7.00002 13.4066C5.96167 13.4066 4.94664 13.1291 4.08328 12.6092C3.21992 12.0892 2.54702 11.3502 2.14966 10.4856C1.7523 9.621 1.64833 8.66961 1.8509 7.75174C2.05347 6.83387 2.55349 5.99076 3.28771 5.32901C4.02194 4.66727 4.9574 4.21661 5.9758 4.03404C6.9942 3.85146 8.0498 3.94517 9.00911 4.3033C9.96842 4.66143 10.7884 5.26791 11.3652 6.04604C11.9421 6.82417 12.25 7.73901 12.25 8.67486C12.25 9.92979 11.6969 11.1333 10.7123 12.0207C9.72777 12.9081 8.39241 13.4066 7.00002 13.4066ZM5.25002 1.57725H8.75002C8.98209 1.57725 9.20465 1.49416 9.36874 1.34626C9.53284 1.19837 9.62502 0.997779 9.62502 0.788623C9.62502 0.579468 9.53284 0.378878 9.36874 0.230982C9.20465 0.0830868 8.98209 0 8.75002 0H5.25002C5.01796 0 4.7954 0.0830868 4.6313 0.230982C4.46721 0.378878 4.37502 0.579468 4.37502 0.788623C4.37502 0.997779 4.46721 1.19837 4.6313 1.34626C4.7954 1.49416 5.01796 1.57725 5.25002 1.57725V1.57725ZM7.87502 6.30899C7.87502 6.09983 7.78284 5.89924 7.61874 5.75135C7.45465 5.60345 7.23209 5.52036 7.00002 5.52036C6.76796 5.52036 6.5454 5.60345 6.3813 5.75135C6.21721 5.89924 6.12502 6.09983 6.12502 6.30899V7.79949C5.9269 7.9592 5.78725 8.16937 5.72455 8.40219C5.66186 8.635 5.67907 8.87949 5.77392 9.10329C5.86877 9.32709 6.03678 9.51967 6.25572 9.65553C6.47466 9.79139 6.73421 9.86413 7.00002 9.86413C7.26584 9.86413 7.52539 9.79139 7.74433 9.65553C7.96327 9.51967 8.13128 9.32709 8.22612 9.10329C8.32097 8.87949 8.33819 8.635 8.27549 8.40219C8.2128 8.16937 8.07315 7.9592 7.87502 7.79949V6.30899Z" fill="#BFB078"/>
</svg>
