<svg width="33" height="30" viewBox="0 0 33 30" fill="none" xmlns="http://www.w3.org/2000/svg">
<path d="M16.9228 4.76539L19.1103 6.95289C19.2459 7.08958 19.4072 7.19807 19.5849 7.27211C19.7626 7.34614 19.9532 7.38426 20.1458 7.38426C20.3383 7.38426 20.5289 7.34614 20.7066 7.27211C20.8843 7.19807 21.0456 7.08958 21.1812 6.95289C21.4025 6.72058 21.541 6.42177 21.5753 6.10276C21.6096 5.78374 21.5377 5.46232 21.3708 5.18831H26.7083C27.095 5.18831 27.466 5.03466 27.7395 4.76117C28.0129 4.48768 28.1666 4.11675 28.1666 3.72997C28.1666 3.3432 28.0129 2.97227 27.7395 2.69878C27.466 2.42528 27.095 2.27164 26.7083 2.27164H21.3708C21.5377 1.99762 21.6096 1.67621 21.5753 1.35719C21.541 1.03817 21.4025 0.739362 21.1812 0.507056C21.0456 0.370369 20.8843 0.261877 20.7066 0.18784C20.5289 0.113802 20.3383 0.0756836 20.1458 0.0756836C19.9532 0.0756836 19.7626 0.113802 19.5849 0.18784C19.4072 0.261877 19.2459 0.370369 19.1103 0.507056L16.9228 2.69456C16.7901 2.83325 16.686 2.99679 16.6166 3.17581C16.4707 3.53085 16.4707 3.92909 16.6166 4.28414C16.686 4.46315 16.7901 4.6267 16.9228 4.76539ZM32.4249 10.4675C32.3555 10.2885 32.2514 10.1249 32.1187 9.98622L29.9312 7.79872C29.7956 7.66203 29.6343 7.55354 29.4566 7.47951C29.2789 7.40547 29.0883 7.36735 28.8958 7.36735C28.7032 7.36735 28.5126 7.40547 28.3349 7.47951C28.1572 7.55354 27.9959 7.66203 27.8603 7.79872C27.639 8.03103 27.5005 8.32984 27.4662 8.64886C27.4319 8.96787 27.5038 9.28929 27.6708 9.56331H22.3333C21.9465 9.56331 21.5755 9.71695 21.3021 9.99044C21.0286 10.2639 20.8749 10.6349 20.8749 11.0216C20.8749 11.4084 21.0286 11.7793 21.3021 12.0528C21.5755 12.3263 21.9465 12.48 22.3333 12.48H27.6708C27.5038 12.754 27.4319 13.0754 27.4662 13.3944C27.5005 13.7134 27.639 14.0122 27.8603 14.2446C27.9959 14.3812 28.1572 14.4897 28.3349 14.5638C28.5126 14.6378 28.7032 14.6759 28.8958 14.6759C29.0883 14.6759 29.2789 14.6378 29.4566 14.5638C29.6343 14.4897 29.7956 14.3812 29.9312 14.2446L32.1187 12.0571C32.2514 11.9184 32.3555 11.7548 32.4249 11.5758C32.5708 11.2208 32.5708 10.8225 32.4249 10.4675ZM15.0416 11.7508C13.8879 11.7508 12.76 12.0929 11.8008 12.7339C10.8415 13.3749 10.0938 14.2859 9.65229 15.3518C9.21078 16.4177 9.09526 17.5906 9.32034 18.7222C9.54542 19.8537 10.101 20.8931 10.9168 21.7089C11.7326 22.5247 12.772 23.0803 13.9036 23.3054C15.0351 23.5305 16.208 23.4149 17.2739 22.9734C18.3398 22.5319 19.2509 21.7843 19.8918 20.825C20.5328 19.8657 20.8749 18.7379 20.8749 17.5841C20.8749 16.037 20.2603 14.5533 19.1664 13.4593C18.0724 12.3654 16.5887 11.7508 15.0416 11.7508ZM15.0416 20.5008C14.4647 20.5008 13.9008 20.3297 13.4212 20.0093C12.9415 19.6888 12.5677 19.2332 12.3469 18.7003C12.1262 18.1673 12.0684 17.5809 12.181 17.0151C12.2935 16.4493 12.5713 15.9296 12.9792 15.5217C13.3871 15.1138 13.9068 14.8361 14.4726 14.7235C15.0384 14.611 15.6248 14.6687 16.1577 14.8895C16.6907 15.1102 17.1462 15.4841 17.4667 15.9637C17.7872 16.4434 17.9583 17.0073 17.9583 17.5841C17.9583 18.3577 17.651 19.0996 17.104 19.6465C16.557 20.1935 15.8151 20.5008 15.0416 20.5008ZM28.1666 16.1258C27.7798 16.1258 27.4089 16.2795 27.1354 16.5529C26.8619 16.8264 26.7083 17.1974 26.7083 17.5841V24.8758C26.7083 25.2626 26.5546 25.6335 26.2811 25.907C26.0076 26.1805 25.6367 26.3341 25.2499 26.3341H4.83325C4.44648 26.3341 4.07555 26.1805 3.80205 25.907C3.52856 25.6335 3.37492 25.2626 3.37492 24.8758V13.2091C3.37492 12.8224 3.52856 12.4514 3.80205 12.1779C4.07555 11.9045 4.44648 11.7508 4.83325 11.7508H7.74992C8.06976 11.7665 8.38585 11.6764 8.64942 11.4945C8.91299 11.3127 9.10937 11.0491 9.20825 10.7446L9.99575 8.38206C10.0869 8.10116 10.2612 7.85457 10.4956 7.67489C10.7299 7.49521 11.0133 7.39091 11.3083 7.37581H13.5833C13.97 7.37581 14.341 7.22216 14.6145 6.94867C14.8879 6.67518 15.0416 6.30425 15.0416 5.91747C15.0416 5.5307 14.8879 5.15977 14.6145 4.88628C14.341 4.61278 13.97 4.45914 13.5833 4.45914H11.3083C10.3875 4.45881 9.49006 4.74901 8.74381 5.2884C7.99756 5.8278 7.44051 6.58889 7.152 7.46331L6.69992 8.83414H4.83325C3.67293 8.83414 2.56013 9.29507 1.73966 10.1155C0.919188 10.936 0.458252 12.0488 0.458252 13.2091V24.8758C0.458252 26.0361 0.919188 27.1489 1.73966 27.9694C2.56013 28.7899 3.67293 29.2508 4.83325 29.2508H25.2499C26.4102 29.2508 27.523 28.7899 28.3435 27.9694C29.164 27.1489 29.6249 26.0361 29.6249 24.8758V17.5841C29.6249 17.1974 29.4713 16.8264 29.1978 16.5529C28.9243 16.2795 28.5534 16.1258 28.1666 16.1258Z" fill="#BB9380"/>
</svg>
