<svg width="18" height="18" viewBox="0 0 18 18" fill="none" xmlns="http://www.w3.org/2000/svg">
<path d="M10.4601 14.0574C10.6921 14.0574 10.9147 13.9652 11.0788 13.8011C11.2429 13.637 11.3351 13.4144 11.3351 13.1824V11.4324C11.3351 11.2003 11.2429 10.9778 11.0788 10.8137C10.9147 10.6496 10.6921 10.5574 10.4601 10.5574C10.228 10.5574 10.0055 10.6496 9.84137 10.8137C9.67727 10.9778 9.58508 11.2003 9.58508 11.4324V13.1824C9.58508 13.4144 9.67727 13.637 9.84137 13.8011C10.0055 13.9652 10.228 14.0574 10.4601 14.0574ZM6.96008 14.0574C7.19215 14.0574 7.41471 13.9652 7.5788 13.8011C7.7429 13.637 7.83508 13.4144 7.83508 13.1824V11.4324C7.83508 11.2003 7.7429 10.9778 7.5788 10.8137C7.41471 10.6496 7.19215 10.5574 6.96008 10.5574C6.72802 10.5574 6.50546 10.6496 6.34137 10.8137C6.17727 10.9778 6.08508 11.2003 6.08508 11.4324V13.1824C6.08508 13.4144 6.17727 13.637 6.34137 13.8011C6.50546 13.9652 6.72802 14.0574 6.96008 14.0574ZM14.8351 3.55738H13.6276L12.1138 0.538631C12.0676 0.427553 11.9989 0.327209 11.9121 0.243868C11.8253 0.160528 11.7223 0.0959838 11.6094 0.0542684C11.4966 0.0125529 11.3763 -0.00543682 11.2562 0.00142336C11.1361 0.00828354 11.0186 0.0398463 10.9113 0.094139C10.8039 0.148432 10.7088 0.224288 10.6321 0.316966C10.5554 0.409645 10.4986 0.517154 10.4653 0.632776C10.432 0.748398 10.4229 0.869647 10.4385 0.988947C10.4542 1.10825 10.4943 1.22303 10.5563 1.32613L11.6676 3.55738H5.75258L6.86383 1.32613C6.94877 1.12217 6.9534 0.893639 6.8768 0.686407C6.80021 0.479176 6.64805 0.308591 6.45089 0.208901C6.25373 0.109212 6.02615 0.0877976 5.81385 0.148958C5.60155 0.210119 5.42024 0.349326 5.30633 0.538631L3.79258 3.55738H2.58508C1.96662 3.56679 1.37135 3.79428 0.904253 4.19975C0.437154 4.60521 0.128237 5.16259 0.0319839 5.77359C-0.0642689 6.38458 0.0583263 7.00994 0.378147 7.53937C0.697968 8.0688 1.19447 8.46829 1.78008 8.66738L2.42758 15.1949C2.49288 15.8446 2.79801 16.4467 3.2834 16.8836C3.76878 17.3204 4.39957 17.5607 5.05258 17.5574H12.3851C13.0381 17.5607 13.6689 17.3204 14.1543 16.8836C14.6397 16.4467 14.9448 15.8446 15.0101 15.1949L15.6576 8.66738C16.2445 8.4677 16.7418 8.06675 17.0614 7.53555C17.3809 7.00435 17.5022 6.37718 17.4037 5.76513C17.3052 5.15308 16.9932 4.59564 16.5231 4.19156C16.053 3.78747 15.455 3.56282 14.8351 3.55738ZM13.2513 15.0199C13.2296 15.2365 13.1279 15.4372 12.9661 15.5828C12.8043 15.7284 12.594 15.8085 12.3763 15.8074H5.04383C4.82616 15.8085 4.6159 15.7284 4.45411 15.5828C4.29231 15.4372 4.1906 15.2365 4.16883 15.0199L3.54758 8.80738H13.8726L13.2513 15.0199ZM14.8351 7.05738H2.58508C2.35302 7.05738 2.13046 6.96519 1.96637 6.8011C1.80227 6.637 1.71008 6.41445 1.71008 6.18238C1.71008 5.95032 1.80227 5.72776 1.96637 5.56366C2.13046 5.39957 2.35302 5.30738 2.58508 5.30738H14.8351C15.0671 5.30738 15.2897 5.39957 15.4538 5.56366C15.6179 5.72776 15.7101 5.95032 15.7101 6.18238C15.7101 6.41445 15.6179 6.637 15.4538 6.8011C15.2897 6.96519 15.0671 7.05738 14.8351 7.05738Z" fill="#080852"/>
</svg>
